<?xml version="1.0" encoding="us-ascii" standalone="no"?><svg xmlns="http://www.w3.org/2000/svg" xmlns:xlink="http://www.w3.org/1999/xlink" contentStyleType="text/css" height="469px" preserveAspectRatio="none" style="width:644px;height:469px;background:#FFFFFF;" version="1.1" viewBox="0 0 644 469" width="644px" zoomAndPan="magnify"><defs/><g><text fill="#000000" font-family="sans-serif" font-size="14" font-weight="bold" lengthAdjust="spacing" textLength="229" x="203.75" y="40.6357">FertiScan Document Analysis</text><rect fill="#ADD8E6" height="400.8906" style="stroke:#181818;stroke-width:0.5;" width="263" x="373.5" y="55.9375"/><text fill="#000000" font-family="sans-serif" font-size="13" font-weight="bold" lengthAdjust="spacing" textLength="42" x="481.5" y="68.0044">Azure</text><line style="stroke:#181818;stroke-width:0.5;stroke-dasharray:5.0,5.0;" x1="27" x2="27" y1="131.2344" y2="462.8281"/><line style="stroke:#181818;stroke-width:0.5;stroke-dasharray:5.0,5.0;" x1="110" x2="110" y1="131.2344" y2="462.8281"/><line style="stroke:#181818;stroke-width:0.5;stroke-dasharray:5.0,5.0;" x1="239" x2="239" y1="131.2344" y2="462.8281"/><line style="stroke:#181818;stroke-width:0.5;stroke-dasharray:5.0,5.0;" x1="462.5" x2="462.5" y1="131.2344" y2="462.8281"/><line style="stroke:#181818;stroke-width:0.5;stroke-dasharray:5.0,5.0;" x1="594.5" x2="594.5" y1="131.2344" y2="462.8281"/><text fill="#000000" font-family="sans-serif" font-size="14" lengthAdjust="spacing" textLength="39" x="5" y="127.9326">Client</text><ellipse cx="27.5" cy="63.4375" fill="#E2E2F0" rx="8" ry="8" style="stroke:#181818;stroke-width:0.5;"/><path d="M27.5,71.4375 L27.5,98.4375 M14.5,79.4375 L40.5,79.4375 M27.5,98.4375 L14.5,113.4375 M27.5,98.4375 L40.5,113.4375 " fill="none" style="stroke:#181818;stroke-width:0.5;"/><rect fill="#E2E2F0" height="30.2969" rx="2.5" ry="2.5" style="stroke:#181818;stroke-width:0.5;" width="77" x="72" y="99.9375"/><text fill="#000000" font-family="sans-serif" font-size="14" lengthAdjust="spacing" textLength="63" x="79" y="119.9326">Frontend</text><rect fill="#E2E2F0" height="30.2969" rx="2.5" ry="2.5" style="stroke:#181818;stroke-width:0.5;" width="75" x="202" y="99.9375"/><text fill="#000000" font-family="sans-serif" font-size="14" lengthAdjust="spacing" textLength="61" x="209" y="119.9326">Backend</text><rect fill="#E2E2F0" height="30.2969" rx="2.5" ry="2.5" style="stroke:#181818;stroke-width:0.5;" width="170" x="377.5" y="99.9375"/><text fill="#000000" font-family="sans-serif" font-size="14" lengthAdjust="spacing" textLength="156" x="384.5" y="119.9326">Document Intelligence</text><rect fill="#E2E2F0" height="46.5938" rx="2.5" ry="2.5" style="stroke:#181818;stroke-width:0.5;" width="75" x="557.5" y="83.6406"/><text fill="#000000" font-family="sans-serif" font-size="14" font-style="italic" lengthAdjust="spacing" textLength="61" x="564.5" y="103.6357">&#171;GPT-4&#187;</text><text fill="#000000" font-family="sans-serif" font-size="14" lengthAdjust="spacing" textLength="50" x="570" y="119.9326">OpenAI</text><polygon fill="#181818" points="98.5,158.3672,108.5,162.3672,98.5,166.3672,102.5,162.3672" style="stroke:#181818;stroke-width:1.0;"/><line style="stroke:#181818;stroke-width:1.0;" x1="27.5" x2="104.5" y1="162.3672" y2="162.3672"/><text fill="#000000" font-family="sans-serif" font-size="13" lengthAdjust="spacing" textLength="59" x="34.5" y="157.3013">analyze()</text><polygon fill="#181818" points="227.5,187.5,237.5,191.5,227.5,195.5,231.5,191.5" style="stroke:#181818;stroke-width:1.0;"/><line style="stroke:#181818;stroke-width:1.0;" x1="110.5" x2="233.5" y1="191.5" y2="191.5"/><text fill="#000000" font-family="sans-serif" font-size="13" lengthAdjust="spacing" textLength="82" x="117.5" y="186.4341">GET /analyze</text><polygon fill="#181818" points="450.5,227.1992,460.5,231.1992,450.5,235.1992,454.5,231.1992" style="stroke:#181818;stroke-width:1.0;"/><line style="stroke:#181818;stroke-width:1.0;" x1="239.5" x2="456.5" y1="231.1992" y2="231.1992"/><text fill="#000000" font-family="sans-serif" font-size="13" lengthAdjust="spacing" textLength="199" x="246.5" y="226.1333">POST .../prebuilt-layout:analyze</text><path d="M467,204.5 L467,244.5 L618,244.5 L618,214.5 L608,204.5 L467,204.5 " fill="#FEFFDD" style="stroke:#181818;stroke-width:0.5;"/><path d="M608,204.5 L608,214.5 L618,214.5 L608,204.5 " fill="#FEFFDD" style="stroke:#181818;stroke-width:0.5;"/><text fill="#000000" font-family="sans-serif" font-size="13" lengthAdjust="spacing" textLength="130" x="473" y="221.5669">Extracts the content</text><text fill="#000000" font-family="sans-serif" font-size="13" lengthAdjust="spacing" textLength="110" x="473" y="236.6997">of the document.</text><line style="stroke:#181818;stroke-width:1.0;" x1="240.5" x2="250.5" y1="270.8984" y2="266.8984"/><line style="stroke:#181818;stroke-width:1.0;" x1="240.5" x2="250.5" y1="270.8984" y2="274.8984"/><line style="stroke:#181818;stroke-width:1.0;stroke-dasharray:2.0,2.0;" x1="239.5" x2="461.5" y1="270.8984" y2="270.8984"/><text fill="#000000" font-family="sans-serif" font-size="13" lengthAdjust="spacing" textLength="132" x="256.5" y="265.8325">return AnalyzeResult</text><polygon fill="#181818" points="583,296.0313,593,300.0313,583,304.0313,587,300.0313" style="stroke:#181818;stroke-width:1.0;"/><line style="stroke:#181818;stroke-width:1.0;" x1="239.5" x2="589" y1="300.0313" y2="300.0313"/><text fill="#000000" font-family="sans-serif" font-size="13" lengthAdjust="spacing" textLength="132" x="246.5" y="294.9653">POST .../completions</text><line style="stroke:#181818;stroke-width:1.0;" x1="240.5" x2="250.5" y1="347.2969" y2="343.2969"/><line style="stroke:#181818;stroke-width:1.0;" x1="240.5" x2="250.5" y1="347.2969" y2="351.2969"/><line style="stroke:#181818;stroke-width:1.0;stroke-dasharray:2.0,2.0;" x1="239.5" x2="594" y1="347.2969" y2="347.2969"/><text fill="#000000" font-family="sans-serif" font-size="13" lengthAdjust="spacing" textLength="75" x="256.5" y="342.231">return JSON</text><path d="M88,313.0313 L88,368.0313 L234,368.0313 L234,323.0313 L224,313.0313 L88,313.0313 " fill="#FEFFDD" style="stroke:#181818;stroke-width:0.5;"/><path d="M224,313.0313 L224,323.0313 L234,323.0313 L224,313.0313 " fill="#FEFFDD" style="stroke:#181818;stroke-width:0.5;"/><text fill="#000000" font-family="sans-serif" font-size="13" lengthAdjust="spacing" textLength="115" x="94" y="330.0981">A form with all the</text><text fill="#000000" font-family="sans-serif" font-size="13" lengthAdjust="spacing" textLength="125" x="94" y="345.231">information needed</text><text fill="#000000" font-family="sans-serif" font-size="13" lengthAdjust="spacing" textLength="107" x="94" y="360.3638">by the inspector.</text><line style="stroke:#181818;stroke-width:1.0;" x1="111.5" x2="121.5" y1="394.5625" y2="390.5625"/><line style="stroke:#181818;stroke-width:1.0;" x1="111.5" x2="121.5" y1="394.5625" y2="398.5625"/><line style="stroke:#181818;stroke-width:1.0;stroke-dasharray:2.0,2.0;" x1="110.5" x2="238.5" y1="394.5625" y2="394.5625"/><text fill="#000000" font-family="sans-serif" font-size="13" lengthAdjust="spacing" textLength="105" x="127.5" y="389.4966">return Response</text><line style="stroke:#181818;stroke-width:1.0;" x1="110.5" x2="152.5" y1="427.7617" y2="427.7617"/><line style="stroke:#181818;stroke-width:1.0;" x1="152.5" x2="152.5" y1="427.7617" y2="440.7617"/><line style="stroke:#181818;stroke-width:1.0;" x1="111.5" x2="152.5" y1="440.7617" y2="440.7617"/><polygon fill="#181818" points="121.5,436.7617,111.5,440.7617,121.5,444.7617,117.5,440.7617" style="stroke:#181818;stroke-width:1.0;"/><text fill="#000000" font-family="sans-serif" font-size="13" lengthAdjust="spacing" textLength="63" x="117.5" y="422.6958">GET /form</text><path d="M192,407.5625 L192,447.5625 L375,447.5625 L375,417.5625 L365,407.5625 L192,407.5625 " fill="#FEFFDD" style="stroke:#181818;stroke-width:0.5;"/><path d="M365,407.5625 L365,417.5625 L375,417.5625 L365,407.5625 " fill="#FEFFDD" style="stroke:#181818;stroke-width:0.5;"/><text fill="#000000" font-family="sans-serif" font-size="13" lengthAdjust="spacing" textLength="162" x="198" y="424.6294">Open the page where the</text><text fill="#000000" font-family="sans-serif" font-size="13" lengthAdjust="spacing" textLength="136" x="198" y="439.7622">form will be displayed</text><text fill="#888888" font-family="sans-serif" font-size="10" lengthAdjust="spacing" textLength="54" x="582.5" y="14.2822">22/05/2024</text><!--SRC=[LP7BRi8m44Nt_eeHtRIB18Je9a982H14LJMey0DECX2hZcqv4_7u-jf9GB3qFEuzlbCXBz72T3gUV8wda-cCCH8a4LAq9FO5Lx3IHLkZ8eWLbzT6DAmI9GBMXgvGOvsZ7Kf7hIdN5yPuGTh2Q2c5sni1Rs3937U2XJ3SAQLMAq9L-axwqabuyJSq4kQq8Bwr5k7jMvmgIcIBBzEZ1zlMwKafJgWAx0nNhuEPGHLlkqusdszsXs2sM33lr04l8LX06W7tNxpX-mTBVIM9OBC-m7WeiyGNLn7iilq1mZ0S6ujvAoG5abzrIz5zK6b2i9wPhIzaNHuDK8LGTFycfe_Tinpmmux4BpcB-Jm8l8b5QgtgKx_XBpQjf9uWUo8eT6qaaj2gkUzcZzslVVRJiqWy4elTXMmDPq4LS2az0XFArxWN08LOOidoQmSdL6FG7_A9BkqTaeU3mpBE6lkyqY4lB_cSWK-_qpJyX72kq9tKcmyu3YLtOOZ6k1WTmDtk7m00]--></g></svg>