<?xml version="1.0" encoding="us-ascii" standalone="no"?><svg xmlns="http://www.w3.org/2000/svg" xmlns:xlink="http://www.w3.org/1999/xlink" contentStyleType="text/css" height="366px" preserveAspectRatio="none" style="width:406px;height:366px;background:#FFFFFF;" version="1.1" viewBox="0 0 406 366" width="406px" zoomAndPan="magnify"><defs/><g><text fill="#000000" font-family="sans-serif" font-size="14" font-weight="bold" lengthAdjust="spacing" textLength="165" x="116.5" y="40.6357">FertiScan File Upload</text><rect fill="none" height="136.1406" style="stroke:#000000;stroke-width:1.5;" width="333" x="56" y="206.5"/><line style="stroke:#181818;stroke-width:0.5;stroke-dasharray:5.0,5.0;" x1="27" x2="27" y1="131.2344" y2="359.6406"/><line style="stroke:#181818;stroke-width:0.5;stroke-dasharray:5.0,5.0;" x1="104" x2="104" y1="131.2344" y2="359.6406"/><line style="stroke:#181818;stroke-width:0.5;stroke-dasharray:5.0,5.0;" x1="341" x2="341" y1="131.2344" y2="359.6406"/><text fill="#000000" font-family="sans-serif" font-size="14" lengthAdjust="spacing" textLength="39" x="5" y="127.9326">Client</text><ellipse cx="27.5" cy="63.4375" fill="#E2E2F0" rx="8" ry="8" style="stroke:#181818;stroke-width:0.5;"/><path d="M27.5,71.4375 L27.5,98.4375 M14.5,79.4375 L40.5,79.4375 M27.5,98.4375 L14.5,113.4375 M27.5,98.4375 L40.5,113.4375 " fill="none" style="stroke:#181818;stroke-width:0.5;"/><rect fill="#E2E2F0" height="30.2969" rx="2.5" ry="2.5" style="stroke:#181818;stroke-width:0.5;" width="77" x="66" y="99.9375"/><text fill="#000000" font-family="sans-serif" font-size="14" lengthAdjust="spacing" textLength="63" x="73" y="119.9326">Frontend</text><rect fill="#E2E2F0" height="30.2969" rx="2.5" ry="2.5" style="stroke:#181818;stroke-width:0.5;" width="75" x="304" y="99.9375"/><text fill="#000000" font-family="sans-serif" font-size="14" lengthAdjust="spacing" textLength="61" x="311" y="119.9326">Backend</text><polygon fill="#181818" points="92.5,158.3672,102.5,162.3672,92.5,166.3672,96.5,162.3672" style="stroke:#181818;stroke-width:1.0;"/><line style="stroke:#181818;stroke-width:1.0;" x1="27.5" x2="98.5" y1="162.3672" y2="162.3672"/><text fill="#000000" font-family="sans-serif" font-size="13" lengthAdjust="spacing" textLength="53" x="34.5" y="157.3013">upload()</text><polygon fill="#181818" points="329.5,187.5,339.5,191.5,329.5,195.5,333.5,191.5" style="stroke:#181818;stroke-width:1.0;"/><line style="stroke:#181818;stroke-width:1.0;" x1="104.5" x2="335.5" y1="191.5" y2="191.5"/><text fill="#000000" font-family="sans-serif" font-size="13" lengthAdjust="spacing" textLength="213" x="111.5" y="186.4341">POST /upload "file=@/path/to/file"</text><path d="M56,206.5 L120,206.5 L120,213.6328 L110,223.6328 L56,223.6328 L56,206.5 " fill="#EEEEEE" style="stroke:#000000;stroke-width:1.5;"/><rect fill="none" height="136.1406" style="stroke:#000000;stroke-width:1.5;" width="333" x="56" y="206.5"/><text fill="#000000" font-family="sans-serif" font-size="13" font-weight="bold" lengthAdjust="spacing" textLength="19" x="71" y="219.5669">alt</text><text fill="#000000" font-family="sans-serif" font-size="11" font-weight="bold" lengthAdjust="spacing" textLength="115" x="135" y="218.7104">[Document found]</text><line style="stroke:#181818;stroke-width:1.0;" x1="105.5" x2="115.5" y1="244.7656" y2="240.7656"/><line style="stroke:#181818;stroke-width:1.0;" x1="105.5" x2="115.5" y1="244.7656" y2="248.7656"/><line style="stroke:#181818;stroke-width:1.0;stroke-dasharray:2.0,2.0;" x1="104.5" x2="340.5" y1="244.7656" y2="244.7656"/><text fill="#000000" font-family="sans-serif" font-size="13" font-style="italic" lengthAdjust="spacing" textLength="196" x="121.5" y="239.6997">File uploaded successfully, 200</text><line style="stroke:#000000;stroke-width:1.0;stroke-dasharray:2.0,2.0;" x1="56" x2="389" y1="253.7656" y2="253.7656"/><text fill="#000000" font-family="sans-serif" font-size="11" font-weight="bold" lengthAdjust="spacing" textLength="99" x="61" y="263.9761">[No path given]</text><line style="stroke:#181818;stroke-width:1.0;" x1="105.5" x2="115.5" y1="288.7031" y2="284.7031"/><line style="stroke:#181818;stroke-width:1.0;" x1="105.5" x2="115.5" y1="288.7031" y2="292.7031"/><line style="stroke:#181818;stroke-width:1.0;stroke-dasharray:2.0,2.0;" x1="104.5" x2="340.5" y1="288.7031" y2="288.7031"/><text fill="#000000" font-family="sans-serif" font-size="13" font-style="italic" lengthAdjust="spacing" textLength="130" x="121.5" y="283.6372">No selected file, 400</text><line style="stroke:#000000;stroke-width:1.0;stroke-dasharray:2.0,2.0;" x1="56" x2="389" y1="297.7031" y2="297.7031"/><line style="stroke:#000000;stroke-width:1.0;stroke-dasharray:2.0,2.0;" x1="56" x2="389" y1="299.7031" y2="299.7031"/><text fill="#000000" font-family="sans-serif" font-size="11" font-weight="bold" lengthAdjust="spacing" textLength="140" x="61" y="309.9136">[Document not found]</text><line style="stroke:#181818;stroke-width:1.0;" x1="105.5" x2="115.5" y1="334.6406" y2="330.6406"/><line style="stroke:#181818;stroke-width:1.0;" x1="105.5" x2="115.5" y1="334.6406" y2="338.6406"/><line style="stroke:#181818;stroke-width:1.0;stroke-dasharray:2.0,2.0;" x1="104.5" x2="340.5" y1="334.6406" y2="334.6406"/><text fill="#000000" font-family="sans-serif" font-size="13" font-style="italic" lengthAdjust="spacing" textLength="171" x="121.5" y="329.5747">The file does not exist, 400</text><text fill="#888888" font-family="sans-serif" font-size="10" lengthAdjust="spacing" textLength="54" x="344" y="14.2822">22/05/2024</text><!--SRC=[RO_1QiCm44Jl-eh5fnOIP4nw2MaeTj6nBIJz04LQrwAorbZhalnz9RiO0ZtkZDxCg4DjSOIgakMJhCfg9mGxzWWAHtOdemCebyxFmPEsedCM0Vk1Rz1ZVy4nBb9Bn1Uw2g4DqmX5unq6Ba17QCIWKvHnWmuCQgJ066nsr9rJQ_FzPzH2DB0zWjh3DFS-F0gLXNeF7- -dCyX5Xg9DsvvVvA2vaqmoduNGdk6LpDId2MdP56oY3uVjDlDIplzP0j12d8p16Dl9-zi6ghAKKg2F26y4EHQ-t0-6ku3aHFHeEE6vSGEx5LlOjJtGVmlE7SuWMC8uly6hYxpc1FiB]--></g></svg>
