<svg xmlns="http://www.w3.org/2000/svg" xmlns:xlink="http://www.w3.org/1999/xlink" contentStyleType="text/css" height="548px" preserveAspectRatio="none" style="width:1110px;height:548px;background:#FFFFFF;" version="1.1" viewBox="0 0 1110 548" width="1110px" zoomAndPan="magnify"><defs/><g><text fill="#888888" font-family="sans-serif" font-size="10" lengthAdjust="spacing" textLength="56" x="1040.5" y="9.2822">27-05-2024</text><text fill="#000000" font-family="sans-serif" font-size="14" font-weight="bold" lengthAdjust="spacing" textLength="189" x="453.75" y="35.6357">FertiScan Domain Model</text><!--cluster Backend--><g id="cluster_Backend"><path d="M8.5,55.9375 L76.5,55.9375 A3.75,3.75 0 0 1 79,58.4375 L86,78.2344 L758.5,78.2344 A2.5,2.5 0 0 1 761,80.7344 L761,443.8875 A2.5,2.5 0 0 1 758.5,446.3875 L8.5,446.3875 A2.5,2.5 0 0 1 6,443.8875 L6,58.4375 A2.5,2.5 0 0 1 8.5,55.9375 " fill="none" style="stroke:#000000;stroke-width:1.5;"/><line style="stroke:#000000;stroke-width:1.5;" x1="6" x2="86" y1="78.2344" y2="78.2344"/><text fill="#000000" font-family="sans-serif" font-size="14" font-weight="bold" lengthAdjust="spacing" textLength="67" x="10" y="70.9326">Backend</text></g><!--class S--><g id="elem_S"><rect codeLine="9" fill="#F1F1F1" height="80.8594" id="S" rx="2.5" ry="2.5" style="stroke:#181818;stroke-width:0.5;" width="166" x="351" y="90.9375"/><ellipse cx="379.95" cy="111.0703" fill="#ADD1B2" rx="11" ry="11" style="stroke:#181818;stroke-width:1.0;"/><path d="M382.9188,116.7109 Q382.3406,117.0078 381.7,117.1484 Q381.0594,117.3047 380.3563,117.3047 Q377.8563,117.3047 376.5281,115.6641 Q375.2156,114.0078 375.2156,110.8828 Q375.2156,107.7578 376.5281,106.1016 Q377.8563,104.4453 380.3563,104.4453 Q381.0594,104.4453 381.7,104.6016 Q382.3563,104.7578 382.9188,105.0547 L382.9188,107.7734 Q382.2938,107.1953 381.7,106.9297 Q381.1063,106.6484 380.4813,106.6484 Q379.1375,106.6484 378.45,107.7266 Q377.7625,108.7891 377.7625,110.8828 Q377.7625,112.9766 378.45,114.0547 Q379.1375,115.1172 380.4813,115.1172 Q381.1063,115.1172 381.7,114.8516 Q382.2938,114.5703 382.9188,113.9922 L382.9188,116.7109 Z " fill="#000000"/><text fill="#000000" font-family="sans-serif" font-size="12" font-style="italic" lengthAdjust="spacing" textLength="107" x="395.05" y="107.0762">&#171;localhost:5000&#187;</text><text fill="#000000" font-family="sans-serif" font-size="14" lengthAdjust="spacing" textLength="35" x="431.05" y="122.9014">Flask</text><line style="stroke:#181818;stroke-width:0.5;" x1="352" x2="516" y1="131.2031" y2="131.2031"/><ellipse cx="362" cy="144.8516" fill="#84BE84" rx="3" ry="3" style="stroke:#038048;stroke-width:1.0;"/><text fill="#000000" font-family="sans-serif" font-size="14" lengthAdjust="spacing" textLength="106" x="371" y="148.1982">upload_image()</text><ellipse cx="362" cy="161.1484" fill="#84BE84" rx="3" ry="3" style="stroke:#038048;stroke-width:1.0;"/><text fill="#000000" font-family="sans-serif" font-size="14" lengthAdjust="spacing" textLength="140" x="371" y="164.4951">analyze_document()</text></g><!--class DS--><g id="elem_DS"><rect codeLine="14" fill="#F1F1F1" height="72.5938" id="DS" rx="2.5" ry="2.5" style="stroke:#181818;stroke-width:0.5;" width="179" x="344.5" y="248.7975"/><ellipse cx="368.5" cy="264.7975" fill="#ADD1B2" rx="11" ry="11" style="stroke:#181818;stroke-width:1.0;"/><path d="M371.4688,270.4381 Q370.8906,270.735 370.25,270.8756 Q369.6094,271.0319 368.9063,271.0319 Q366.4063,271.0319 365.0781,269.3913 Q363.7656,267.735 363.7656,264.61 Q363.7656,261.485 365.0781,259.8288 Q366.4063,258.1725 368.9063,258.1725 Q369.6094,258.1725 370.25,258.3288 Q370.9063,258.485 371.4688,258.7819 L371.4688,261.5006 Q370.8438,260.9225 370.25,260.6569 Q369.6563,260.3756 369.0313,260.3756 Q367.6875,260.3756 367,261.4538 Q366.3125,262.5163 366.3125,264.61 Q366.3125,266.7038 367,267.7819 Q367.6875,268.8444 369.0313,268.8444 Q369.6563,268.8444 370.25,268.5788 Q370.8438,268.2975 371.4688,267.7194 L371.4688,270.4381 Z " fill="#000000"/><text fill="#000000" font-family="sans-serif" font-size="14" lengthAdjust="spacing" textLength="127" x="384.5" y="269.6442">DocumentStorage</text><line style="stroke:#181818;stroke-width:0.5;" x1="345.5" x2="522.5" y1="280.7975" y2="280.7975"/><ellipse cx="355.5" cy="294.4459" fill="#84BE84" rx="3" ry="3" style="stroke:#038048;stroke-width:1.0;"/><text fill="#000000" font-family="sans-serif" font-size="14" lengthAdjust="spacing" textLength="113" x="364.5" y="297.7926">add_page(page)</text><ellipse cx="355.5" cy="310.7428" fill="#84BE84" rx="3" ry="3" style="stroke:#038048;stroke-width:1.0;"/><text fill="#000000" font-family="sans-serif" font-size="14" lengthAdjust="spacing" textLength="153" x="364.5" y="314.0895">get_document() bytes</text></g><!--class LLM--><g id="elem_LLM"><rect codeLine="19" fill="#F1F1F1" height="56.2969" id="LLM" rx="2.5" ry="2.5" style="stroke:#181818;stroke-width:0.5;" width="187" x="558.5" y="256.9375"/><ellipse cx="593.75" cy="272.9375" fill="#ADD1B2" rx="11" ry="11" style="stroke:#181818;stroke-width:1.0;"/><path d="M596.7188,278.5781 Q596.1406,278.875 595.5,279.0156 Q594.8594,279.1719 594.1563,279.1719 Q591.6563,279.1719 590.3281,277.5313 Q589.0156,275.875 589.0156,272.75 Q589.0156,269.625 590.3281,267.9688 Q591.6563,266.3125 594.1563,266.3125 Q594.8594,266.3125 595.5,266.4688 Q596.1563,266.625 596.7188,266.9219 L596.7188,269.6406 Q596.0938,269.0625 595.5,268.7969 Q594.9063,268.5156 594.2813,268.5156 Q592.9375,268.5156 592.25,269.5938 Q591.5625,270.6563 591.5625,272.75 Q591.5625,274.8438 592.25,275.9219 Q592.9375,276.9844 594.2813,276.9844 Q594.9063,276.9844 595.5,276.7188 Q596.0938,276.4375 596.7188,275.8594 L596.7188,278.5781 Z " fill="#000000"/><text fill="#000000" font-family="sans-serif" font-size="14" lengthAdjust="spacing" textLength="110" x="612.25" y="277.7842">LanguageModel</text><line style="stroke:#181818;stroke-width:0.5;" x1="559.5" x2="744.5" y1="288.9375" y2="288.9375"/><ellipse cx="569.5" cy="302.5859" fill="#84BE84" rx="3" ry="3" style="stroke:#038048;stroke-width:1.0;"/><text fill="#000000" font-family="sans-serif" font-size="14" lengthAdjust="spacing" textLength="161" x="578.5" y="305.9326">generate_form(prompt)</text></g><!--class OCR--><g id="elem_OCR"><rect codeLine="23" fill="#F1F1F1" height="56.2969" id="OCR" rx="2.5" ry="2.5" style="stroke:#181818;stroke-width:0.5;" width="288" x="22" y="256.9375"/><ellipse cx="146.25" cy="272.9375" fill="#ADD1B2" rx="11" ry="11" style="stroke:#181818;stroke-width:1.0;"/><path d="M149.2188,278.5781 Q148.6406,278.875 148,279.0156 Q147.3594,279.1719 146.6563,279.1719 Q144.1563,279.1719 142.8281,277.5313 Q141.5156,275.875 141.5156,272.75 Q141.5156,269.625 142.8281,267.9688 Q144.1563,266.3125 146.6563,266.3125 Q147.3594,266.3125 148,266.4688 Q148.6563,266.625 149.2188,266.9219 L149.2188,269.6406 Q148.5938,269.0625 148,268.7969 Q147.4063,268.5156 146.7813,268.5156 Q145.4375,268.5156 144.75,269.5938 Q144.0625,270.6563 144.0625,272.75 Q144.0625,274.8438 144.75,275.9219 Q145.4375,276.9844 146.7813,276.9844 Q147.4063,276.9844 148,276.7188 Q148.5938,276.4375 149.2188,275.8594 L149.2188,278.5781 Z " fill="#000000"/><text fill="#000000" font-family="sans-serif" font-size="14" lengthAdjust="spacing" textLength="31" x="166.75" y="277.7842">OCR</text><line style="stroke:#181818;stroke-width:0.5;" x1="23" x2="309" y1="288.9375" y2="288.9375"/><ellipse cx="33" cy="302.5859" fill="#84BE84" rx="3" ry="3" style="stroke:#038048;stroke-width:1.0;"/><text fill="#000000" font-family="sans-serif" font-size="14" lengthAdjust="spacing" textLength="262" x="42" y="305.9326">extract_text(document) AnalyzeResult</text></g><!--class R--><g id="elem_R"><rect codeLine="27" fill="#F1F1F1" height="32" id="R" rx="2.5" ry="2.5" style="stroke:#181818;stroke-width:0.5;" width="129" x="609.5" y="398.3875"/><ellipse cx="624.5" cy="414.3875" fill="#ADD1B2" rx="11" ry="11" style="stroke:#181818;stroke-width:1.0;"/><path d="M627.4688,420.0281 Q626.8906,420.325 626.25,420.4656 Q625.6094,420.6219 624.9063,420.6219 Q622.4063,420.6219 621.0781,418.9813 Q619.7656,417.325 619.7656,414.2 Q619.7656,411.075 621.0781,409.4188 Q622.4063,407.7625 624.9063,407.7625 Q625.6094,407.7625 626.25,407.9188 Q626.9063,408.075 627.4688,408.3719 L627.4688,411.0906 Q626.8438,410.5125 626.25,410.2469 Q625.6563,409.9656 625.0313,409.9656 Q623.6875,409.9656 623,411.0438 Q622.3125,412.1063 622.3125,414.2 Q622.3125,416.2938 623,417.3719 Q623.6875,418.4344 625.0313,418.4344 Q625.6563,418.4344 626.25,418.1688 Q626.8438,417.8875 627.4688,417.3094 L627.4688,420.0281 Z " fill="#000000"/><text fill="#000000" font-family="sans-serif" font-size="14" lengthAdjust="spacing" textLength="97" x="638.5" y="419.2342">AnalyzeResult</text></g><!--class P--><g id="elem_P"><rect codeLine="31" fill="#F1F1F1" height="32" id="P" rx="2.5" ry="2.5" style="stroke:#181818;stroke-width:0.5;" width="82" x="818" y="509.3875"/><ellipse cx="833" cy="525.3875" fill="#ADD1B2" rx="11" ry="11" style="stroke:#181818;stroke-width:1.0;"/><path d="M837.1094,531.3875 L829.3906,531.3875 L829.3906,518.9969 L837.1094,518.9969 L837.1094,521.1531 L831.8438,521.1531 L831.8438,523.825 L836.6094,523.825 L836.6094,525.9813 L831.8438,525.9813 L831.8438,529.2313 L837.1094,529.2313 L837.1094,531.3875 Z " fill="#000000"/><text fill="#000000" font-family="sans-serif" font-size="14" lengthAdjust="spacing" textLength="50" x="847" y="530.2342">Prompt</text></g><!--class D--><g id="elem_D"><rect codeLine="32" fill="#F1F1F1" height="32" id="D" rx="2.5" ry="2.5" style="stroke:#181818;stroke-width:0.5;" width="105" x="776.5" y="398.3875"/><ellipse cx="791.5" cy="414.3875" fill="#ADD1B2" rx="11" ry="11" style="stroke:#181818;stroke-width:1.0;"/><path d="M795.6094,420.3875 L787.8906,420.3875 L787.8906,407.9969 L795.6094,407.9969 L795.6094,410.1531 L790.3438,410.1531 L790.3438,412.825 L795.1094,412.825 L795.1094,414.9813 L790.3438,414.9813 L790.3438,418.2313 L795.6094,418.2313 L795.6094,420.3875 Z " fill="#000000"/><text fill="#000000" font-family="sans-serif" font-size="14" lengthAdjust="spacing" textLength="73" x="805.5" y="419.2342">Document</text></g><!--class F--><g id="elem_F"><rect codeLine="33" fill="#F1F1F1" height="32" id="F" rx="2.5" ry="2.5" style="stroke:#181818;stroke-width:0.5;" width="67" x="1036.5" y="398.3875"/><ellipse cx="1051.5" cy="414.3875" fill="#ADD1B2" rx="11" ry="11" style="stroke:#181818;stroke-width:1.0;"/><path d="M1055.6094,420.3875 L1047.8906,420.3875 L1047.8906,407.9969 L1055.6094,407.9969 L1055.6094,410.1531 L1050.3438,410.1531 L1050.3438,412.825 L1055.1094,412.825 L1055.1094,414.9813 L1050.3438,414.9813 L1050.3438,418.2313 L1055.6094,418.2313 L1055.6094,420.3875 Z " fill="#000000"/><text fill="#000000" font-family="sans-serif" font-size="14" lengthAdjust="spacing" textLength="35" x="1065.5" y="419.2342">Form</text></g><!--link S to OCR--><g id="link_S_OCR"><path codeLine="36" d="M363.59,172.2275 C316.75,198.7475 256.42,232.8975 214.81,256.4575 " fill="none" id="S-OCR" style="stroke:#181818;stroke-width:1.0;"/><polygon fill="#000000" points="308.6489,212.8272,317.968,210.9285,315.0722,205.8135,308.6489,212.8272" style="stroke:#000000;stroke-width:1.0;"/><text fill="#000000" font-family="sans-serif" font-size="13" lengthAdjust="spacing" textLength="30" x="322" y="214.8644">uses</text></g><!--link S to LLM--><g id="link_S_LLM"><path codeLine="37" d="M491.28,172.2275 C529.37,198.7475 578.45,232.8975 612.29,256.4575 " fill="none" id="S-LLM" style="stroke:#181818;stroke-width:1.0;"/><polygon fill="#000000" points="565.1037,213.2204,559.359,205.6409,556.001,210.4651,565.1037,213.2204" style="stroke:#000000;stroke-width:1.0;"/><text fill="#000000" font-family="sans-serif" font-size="13" lengthAdjust="spacing" textLength="30" x="570" y="214.8644">uses</text></g><!--link S to DS--><g id="link_S_DS"><path codeLine="38" d="M434,172.2275 C434,195.8475 434,225.5275 434,248.3775 " fill="none" id="S-DS" style="stroke:#181818;stroke-width:1.0;"/><polygon fill="#000000" points="439,215.3639,441.9389,206.3188,436.0611,206.3188,439,215.3639" style="stroke:#000000;stroke-width:1.0;"/><text fill="#000000" font-family="sans-serif" font-size="13" lengthAdjust="spacing" textLength="30" x="448" y="214.8644">uses</text></g><!--link OCR to R--><g id="link_OCR_R"><path codeLine="40" d="M276.23,313.7075 C379.09,339.4875 528.86,377.0175 612.19,397.8975 " fill="none" id="OCR-R" style="stroke:#181818;stroke-width:1.0;"/><polygon fill="#000000" points="489.85,361.1693,481.7906,356.1199,480.3618,361.8214,489.85,361.1693" style="stroke:#000000;stroke-width:1.0;"/><text fill="#000000" font-family="sans-serif" font-size="13" lengthAdjust="spacing" textLength="59" x="494" y="364.4544">produces</text></g><!--link DS to D--><g id="link_DS_D"><path codeLine="41" d="M523.89,315.8075 C529.68,317.7075 535.42,319.5775 541,321.3875 C624.87,348.6175 722.69,379.7275 780.03,397.8975 " fill="none" id="DS-D" style="stroke:#181818;stroke-width:1.0;"/><polygon fill="#000000" points="691.7614,361.4799,684.0449,355.9206,682.251,361.5181,691.7614,361.4799" style="stroke:#000000;stroke-width:1.0;"/><text fill="#000000" font-family="sans-serif" font-size="13" lengthAdjust="spacing" textLength="54" x="696" y="364.4544">contains</text></g><!--link LLM to P--><g id="link_LLM_P"><path codeLine="42" d="M745.71,302.7275 C800.48,317.7775 865.28,346.0075 899,398.3875 C921.99,434.0875 890.86,483.9875 871.83,508.9275 " fill="none" id="LLM-P" style="stroke:#181818;stroke-width:1.0;"/><polygon fill="#000000" points="914.6089,418.7193,912.3965,409.4697,907.3822,412.5366,914.6089,418.7193" style="stroke:#000000;stroke-width:1.0;"/><text fill="#000000" font-family="sans-serif" font-size="13" lengthAdjust="spacing" textLength="35" x="921" y="418.9544">takes</text></g><!--link LLM to F--><g id="link_LLM_F"><path codeLine="43" d="M745.87,295.1475 C812.35,303.8875 902.58,320.5175 977,351.3875 C1005.14,363.0575 1033.74,383.7375 1051.66,397.9775 " fill="none" id="LLM-F" style="stroke:#181818;stroke-width:1.0;"/><polygon fill="#000000" points="1018.7392,361.5476,1011.1026,355.8789,1009.2291,361.4502,1018.7392,361.5476" style="stroke:#000000;stroke-width:1.0;"/><text fill="#000000" font-family="sans-serif" font-size="13" lengthAdjust="spacing" textLength="65" x="1023" y="364.4544">generates</text></g><!--link R to P--><g id="link_R_P"><path codeLine="44" d="M700.11,430.7775 C735.27,451.4875 797.48,488.1375 832.72,508.9075 " fill="none" id="R-P" style="stroke:#181818;stroke-width:1.0;"/><polygon fill="#000000" points="786.3079,473.492,780.0067,466.3684,777.023,471.4327,786.3079,473.492" style="stroke:#000000;stroke-width:1.0;"/><text fill="#000000" font-family="sans-serif" font-size="13" lengthAdjust="spacing" textLength="54" x="791" y="475.4544">contains</text></g><!--SRC=[RPBHQeCm58RlVOg3LvKXI5aPo2Xi4wzQLke3I9gSMMbC98bitUYxxvXQTQnUcF3_vtmv-VM8JA21vLEShE9bidmC872ramWv6bSNd2d8TCDg1LijK99zh0K2DgqxGuFD0OqbiMNyn2g4LrfH2VW90YwPjH3cj9n2O1OAU7wMcZDvrDQbgoH9rcig17Y0hfMQYR9kYB68lCGKa-TlB8NcNOFAaNoXWu2UWPmDJk6qeJv_HbPueWS8KROzhtz5WrYXcn7XS7PelNK9vkWDKrL7RVxE7hpPR4ToXGeDSrX-QDCiMgCfZEWEvVrj7uvD-EKCuwvqj5dSHeZWvNhDFTfEkZkCFxwVP7_D8Q3schv1kFFdUsitgRTmhgcCSauJUodtZ09YeJzL33Hg2fr52-j9f3l_5xDYr22WjfjE_PI4wBYtiga-1QwLep-8T0Zw70Tdbu9Z9ry-K_DqpBTtzhFgYVCB]--></g></svg>